#!OML:ASF F:\VICON\USERDATA\INSTALL\rory3\rory3.ASF
:FULLY-SPECIFIED
:DEGREES
337
root 1.37919 18.6682 2.08265 -0.205718 0.637192 1.24676
lowerback 7.95163 0.464204 -2.01991
upperback 0.409426 0.413417 -0.53045
thorax -4.04657 0.237335 0.539337
lowerneck -9.01913 -2.36759 -6.92059
upperneck 4.77579 -2.94106 8.55824
head 3.12072 -1.23659 3.57255
rclavicle 0 1.04362e-014
rhumerus -37.4817 1.31165 -80.2083
rradius 29.8619
rwrist 1.69554
rhand -27.3258 -2.26302
rfingers 7.12502
rthumb -0.73479 -32.2415
lclavicle 0 1.04362e-014
lhumerus -37.6924 24.5745 67.7284
lradius 21.2939
lwrist -3.12868
lhand -25.1776 21.1789
lfingers 7.12502
lthumb 1.34 51.1544
rfemur -8.1889 13.167 18.8726
rtibia 29.2531
rfoot -19.6494 -14.8876
rtoes 0.497335
lfemur -6.28342 -0.0118404 -22.0144
ltibia 26.7881
lfoot -17.2855 10.7812
ltoes -4.37567
338
root 1.37241 18.7086 2.08759 0.0599278 0.564163 1.27509
lowerback 7.53505 0.478569 -2.07998
upperback 0.314233 0.436001 -0.554894
thorax -3.91267 0.248966 0.547679
lowerneck -9.10571 -2.34639 -6.88715
upperneck 4.9044 -2.9233 8.61421
head 3.17258 -1.22188 3.58502
rclavicle 5.8393e-016 1.74931e-014
rhumerus -37.3048 1.36116 -80.307
rradius 29.6837
rwrist 1.03325
rhand -27.4577 -2.40401
rfingers 7.12502
rthumb -0.862134 -32.382
lclavicle 5.8393e-016 1.74931e-014
lhumerus -37.6247 24.4138 67.9038
lradius 21.6189
lwrist -2.94542
lhand -25.1339 21.1703
lfingers 7.12502
lthumb 1.38221 51.1455
rfemur -7.83297 13.7031 18.8759
rtibia 28.0843
rfoot -19.1457 -15.4668
rtoes 0.519113
lfemur -5.88162 -0.340779 -22.0842
ltibia 25.5488
lfoot -16.7858 11.2765
ltoes -4.74347
339
root 1.36602 18.7471 2.09359 0.254061 0.403924 1.19087
lowerback 7.20161 0.508375 -2.0196
upperback 0.241997 0.489242 -0.539721
thorax -3.80147 0.274013 0.525928
lowerneck -9.43709 -2.3355 -6.80007
upperneck 5.24011 -2.91536 8.54759
head 3.32467 -1.20899 3.54917
rclavicle 5.98218e-015 -2.27608e-014
rhumerus -37.0831 1.26602 -80.2651
rradius 29.5985
rwrist 1.03973
rhand -27.5079 -2.43284
rfingers 7.12502
rthumb -0.910598 -32.4106
lclavicle 5.98218e-015 -2.27608e-014
lhumerus -37.5286 24.3904 68.0474
lradius 21.904
lwrist -2.83538
lhand -25.0526 21.397
lfingers 7.12502
lthumb 1.4608 51.3718
rfemur -7.4247 14.3264 19.0103
rtibia 26.9387
rfoot -18.7008 -16.0438
rtoes 0.9618
lfemur -5.43642 -0.690286 -22.0317
ltibia 24.3921
lfoot -16.3643 11.8527
ltoes -5.12174
340
root 1.36095 18.7842 2.10215 0.465496 0.323646 1.10068
lowerback 6.8678 0.510688 -1.90058
upperback 0.0961496 0.50912 -0.521096
thorax -3.76483 0.282544 0.478154
lowerneck -9.4182 -2.29319 -6.80375
upperneck 5.45574 -2.86995 8.53007
head 3.38254 -1.18616 3.54764
rclavicle 4.09993e-016 -1.68967e-015
rhumerus -36.9944 1.12349 -80.1235
rradius 29.5255
rwrist 1.52323
rhand -27.746 -1.67241
rfingers 7.12502
rthumb -1.14064 -31.6491
lclavicle 4.09993e-016 -1.68967e-015
lhumerus -37.5362 24.262 68.1931
lradius 22.2177
lwrist -2.69842
lhand -24.68 22.3564
lfingers 7.12502
lthumb 1.82066 52.3284
rfemur -7.03173 14.839 19.1359
rtibia 25.8436
rfoot -18.3336 -16.5555
rtoes 1.06043
lfemur -5.01238 -1.06783 -21.9703
ltibia 23.2652
lfoot -15.9879 12.3515
ltoes -4.9202
341
root 1.35517 18.8162 2.10848 0.759712 0.3126 0.929542
lowerback 6.46032 0.495708 -1.68975
upperback -0.0648654 0.513763 -0.501057
thorax -3.70101 0.281683 0.382463
lowerneck -9.29282 -2.28252 -6.75472
upperneck 5.5618 -2.87285 8.50603
head 3.39296 -1.18959 3.53284
rclavicle 2.35436e-015 9.93923e-017
rhumerus -36.9271 0.850251 -79.9668
rradius 29.4595
rwrist 2.14166
rhand -28.201 -0.596983
rfingers 7.12502
rthumb -1.58 -30.5709
lclavicle 2.35436e-015 9.93923e-017
lhumerus -37.4755 23.9871 68.3925
lradius 22.5428
lwrist -2.43772
lhand -24.4101 22.9999
lfingers 7.12502
lthumb 2.08133 52.9695
rfemur -6.75648 15.2576 19.3258
rtibia 24.7988
rfoot -18.0002 -17.0213
rtoes 0.950696
lfemur -4.68503 -1.55394 -21.8148
ltibia 22.1452
lfoot -15.6102 12.8758
ltoes -4.65032
